<?xml version="1.0" standalone="no"?>
<!DOCTYPE svg PUBLIC "-//W3C//DTD SVG 20010904//EN"
 "http://www.w3.org/TR/2001/REC-SVG-20010904/DTD/svg10.dtd">
<svg version="1.0" xmlns="http://www.w3.org/2000/svg"
 width="512.000000pt" height="512.000000pt" viewBox="0 0 512.000000 512.000000"
 preserveAspectRatio="xMidYMid meet">
<metadata>
Created by potrace 1.14, written by Peter Selinger 2001-2017
</metadata>
<g transform="translate(0.000000,512.000000) scale(0.100000,-0.100000)"
fill="#000000" stroke="none">
<path d="M1350 5069 c-99 -13 -213 -73 -287 -152 -33 -35 -70 -86 -83 -113
-50 -105 -52 -124 -57 -426 l-5 -288 -193 0 c-159 0 -205 -3 -271 -20 -223
-56 -363 -183 -426 -383 l-23 -72 0 -1535 c0 -1731 -6 -1590 78 -1755 80 -153
211 -250 384 -280 117 -21 4070 -21 4188 0 170 30 303 128 382 280 84 165 78
25 78 1750 0 1438 -1 1534 -18 1595 -57 207 -203 342 -431 400 -66 17 -112 20
-271 20 l-193 0 -5 288 c-5 302 -7 321 -57 426 -63 132 -226 246 -380 266 -93
12 -2318 11 -2410 -1z m2395 -444 l25 -24 0 -256 0 -255 -1210 0 -1210 0 0
255 0 256 25 24 24 25 1161 0 1161 0 24 -25z m-2265 -1343 c19 -9 45 -32 57
-51 22 -33 23 -41 23 -267 l0 -234 -65 0 -64 0 -3 143 -3 142 -145 0 -145 0
-3 -142 -3 -143 -64 0 -65 0 0 234 c0 226 1 234 23 267 40 61 71 69 257 69
137 0 171 -3 200 -18z m2560 0 c19 -9 45 -32 57 -51 22 -33 23 -41 23 -267 l0
-234 -65 0 -64 0 -3 143 -3 142 -145 0 -145 0 -3 -142 -3 -143 -64 0 -65 0 0
234 c0 226 1 234 23 267 40 61 71 69 257 69 137 0 171 -3 200 -18z m510 -1402
l0 -140 -1990 0 -1990 0 0 140 0 140 1990 0 1990 0 0 -140z m0 -855 l0 -145
-1990 0 -1990 0 0 145 0 145 1990 0 1990 0 0 -145z"/>
</g>
</svg>
